<svg width="91" height="40" viewBox="0 0 91 40" fill="none" xmlns="http://www.w3.org/2000/svg">
<rect width="91" height="40" fill="#DC4F5A"/>
<path d="M44.972 17.26H47.712C49.622 17.26 50.482 18.05 50.482 19.48C50.482 20.91 49.492 21.76 47.632 21.76H46.322V25.02H44.972V17.26ZM46.322 18.27V20.75H47.592C48.622 20.75 49.122 20.28 49.122 19.49C49.122 18.72 48.672 18.27 47.642 18.27H46.322ZM53.7503 19.41C55.2303 19.41 56.2303 20.49 56.2303 22.27C56.2303 24.05 55.2403 25.16 53.7403 25.16C52.2403 25.16 51.2603 24.08 51.2603 22.3C51.2603 20.52 52.2603 19.41 53.7503 19.41ZM53.7503 20.32C52.9403 20.32 52.5503 21.02 52.5503 22.28C52.5503 23.55 52.9303 24.25 53.7403 24.25C54.5503 24.25 54.9403 23.56 54.9403 22.28C54.9403 21.02 54.5603 20.32 53.7503 20.32ZM61.898 21.16L60.678 21.44C60.558 20.68 60.218 20.33 59.708 20.33C58.898 20.33 58.478 21.02 58.478 22.28C58.478 23.55 58.898 24.24 59.708 24.24C60.298 24.24 60.638 23.85 60.758 23.09L61.928 23.41C61.658 24.55 60.858 25.16 59.678 25.16C58.118 25.16 57.188 24.09 57.188 22.3C57.188 20.51 58.148 19.41 59.678 19.41C60.858 19.41 61.658 20.04 61.898 21.16ZM67.6656 19.53L65.8356 21.58L67.7656 25.02H66.3856L65.0256 22.43L64.2756 23.26V25.02H63.0356V17.12H64.2756V21.93L66.2556 19.53H67.6656ZM73.3487 22.55H69.6387C69.6487 23.59 70.1087 24.28 71.0187 24.28C71.5887 24.28 71.9887 23.96 72.1787 23.24L73.3187 23.57C72.9787 24.62 72.2287 25.16 71.0087 25.16C69.3687 25.16 68.4087 24.11 68.4087 22.31C68.4087 20.52 69.4187 19.41 70.8987 19.41C72.2987 19.41 73.3487 20.43 73.3487 22.29V22.55ZM69.6587 21.72H72.1187C72.0587 20.8 71.6687 20.28 70.9187 20.28C70.1587 20.28 69.7187 20.84 69.6587 21.72ZM76.1176 17.74V19.53H77.3476V20.45H76.1176V23.46C76.1176 24.01 76.3376 24.25 76.7976 24.25C77.0076 24.25 77.2076 24.24 77.4376 24.19L77.3876 25.09C77.0376 25.14 76.7376 25.15 76.4076 25.15C75.3676 25.15 74.8776 24.7 74.8776 23.69V20.45H74.0576V19.53H74.8776V18.02L76.1176 17.74Z" fill="white"/>
<path d="M32.5787 10H15.0827C13.9466 10 13 10.8709 13 12.007V18.4829C13 24.3528 17.8472 29.238 23.8308 29.238C29.7764 29.238 34.5859 24.3528 34.5859 18.4829V12.007C34.5859 10.8709 33.6769 10 32.5787 10ZM29.9658 18.0284L24.8154 22.8758C24.5504 23.1788 24.1338 23.2924 23.8308 23.2924C23.452 23.2924 23.0733 23.1788 22.7704 22.8758L17.6959 18.0284C17.1656 17.4604 17.09 16.5136 17.6959 15.9077C18.2638 15.3775 19.2106 15.3018 19.7786 15.9077L23.8308 19.8083L27.9585 15.9077C28.4887 15.3018 29.4355 15.3775 29.9658 15.9077C30.496 16.5136 30.496 17.4604 29.9658 18.0284Z" fill="white"/>
</svg>
