<svg width="88" height="40" viewBox="0 0 88 40" fill="none" xmlns="http://www.w3.org/2000/svg">
<rect width="88" height="40" fill="#4A9FEB"/>
<path d="M48.125 17.26V18.35H45.815V25.02H44.455V18.35H42.165V17.26H48.125ZM55.6397 19.53L54.1297 25.02H52.6697L52.1197 22.56C51.9897 21.94 51.8697 21.29 51.7297 20.57H51.6097C51.4797 21.28 51.3497 21.95 51.2097 22.57L50.6297 25.02H49.1697L47.6997 19.53H48.9897L49.5097 21.94C49.6597 22.63 49.7897 23.35 49.9197 23.96H50.0297C50.1697 23.34 50.2997 22.6 50.4497 21.96L50.9897 19.53H52.4697L52.9897 21.96C53.1397 22.64 53.2797 23.33 53.3797 23.96H53.4997C53.6397 23.3 53.7497 22.65 53.9097 21.95L54.4397 19.53H55.6397ZM57.9091 19.53V25.02H56.6491V19.53H57.9091ZM57.9591 17.26V18.55H56.5991V17.26H57.9591ZM61.0204 17.74V19.53H62.2504V20.45H61.0204V23.46C61.0204 24.01 61.2404 24.25 61.7004 24.25C61.9104 24.25 62.1104 24.24 62.3404 24.19L62.2904 25.09C61.9404 25.14 61.6404 25.15 61.3104 25.15C60.2704 25.15 59.7804 24.7 59.7804 23.69V20.45H58.9604V19.53H59.7804V18.02L61.0204 17.74ZM64.8193 17.74V19.53H66.0493V20.45H64.8193V23.46C64.8193 24.01 65.0393 24.25 65.4993 24.25C65.7093 24.25 65.9093 24.24 66.1393 24.19L66.0893 25.09C65.7393 25.14 65.4393 25.15 65.1093 25.15C64.0693 25.15 63.5793 24.7 63.5793 23.69V20.45H62.7593V19.53H63.5793V18.02L64.8193 17.74ZM71.7281 22.55H68.0181C68.0281 23.59 68.4881 24.28 69.3981 24.28C69.9681 24.28 70.3681 23.96 70.5581 23.24L71.6981 23.57C71.3581 24.62 70.6081 25.16 69.3881 25.16C67.7481 25.16 66.7881 24.11 66.7881 22.31C66.7881 20.52 67.7981 19.41 69.2781 19.41C70.6781 19.41 71.7281 20.43 71.7281 22.29V22.55ZM68.0381 21.72H70.4981C70.4381 20.8 70.0481 20.28 69.2981 20.28C68.5381 20.28 68.0981 20.84 68.0381 21.72ZM75.877 19.41L75.797 20.59C75.137 20.59 74.587 21.02 74.237 21.98V25.02H72.997V19.53H74.177V20.88C74.567 19.8 75.137 19.41 75.877 19.41Z" fill="white"/>
<path d="M19.6014 28.0594C27.5228 28.0594 31.8546 21.4968 31.8546 15.8062C31.8546 15.6197 31.8508 15.4341 31.8422 15.2495C32.683 14.6416 33.414 13.8831 33.9907 13.0196C33.219 13.3624 32.3886 13.5934 31.5175 13.6976C32.4066 13.1646 33.0893 12.3209 33.4112 11.3154C32.5789 11.8087 31.6576 12.1674 30.6767 12.3606C29.8908 11.5236 28.7716 11 27.5332 11C25.1547 11 23.226 12.9287 23.226 15.3063C23.226 15.6443 23.2639 15.9729 23.3377 16.2882C19.7586 16.1083 16.5848 14.3945 14.461 11.7887C14.0908 12.425 13.8777 13.1646 13.8777 13.9532C13.8777 15.4474 14.638 16.7663 15.7941 17.538C15.0878 17.5163 14.4241 17.3222 13.8437 16.9992C13.8427 17.0172 13.8427 17.0353 13.8427 17.0542C13.8427 19.14 15.3274 20.8813 17.2977 21.2762C16.936 21.3746 16.5554 21.4277 16.1625 21.4277C15.885 21.4277 15.6152 21.4002 15.3529 21.35C15.9012 23.061 17.4909 24.3061 19.3761 24.3412C17.9018 25.4963 16.0451 26.1847 14.0273 26.1847C13.6799 26.1847 13.3371 26.1648 13 26.125C14.906 27.3464 17.169 28.0594 19.6014 28.0594Z" fill="white"/>
</svg>
