<svg width="105" height="40" viewBox="0 0 105 40" fill="none" xmlns="http://www.w3.org/2000/svg">
<rect width="105" height="40" fill="#425893"/>
<path d="M47.8108 17.26V18.33H44.0608V20.42H46.9008V21.49H44.0608V25.02H42.7008V17.26H47.8108ZM49.4992 21.23L48.3192 20.91C48.5992 19.92 49.3992 19.4 50.5892 19.4C52.0092 19.4 52.7192 20 52.7192 21.22V23.4C52.7192 24.04 52.7592 24.56 52.8092 25.02H51.6492C51.6092 24.78 51.5892 24.62 51.5592 24.3C51.1692 24.86 50.5292 25.15 49.8292 25.15C48.8192 25.15 48.1392 24.52 48.1392 23.52C48.1392 22.56 48.7392 21.94 49.9292 21.71C50.3992 21.62 50.9392 21.57 51.4992 21.55V21.24C51.4992 20.55 51.2092 20.27 50.5492 20.27C50.0292 20.27 49.6092 20.6 49.4992 21.23ZM51.4992 23.35V22.33C50.9692 22.34 50.5792 22.41 50.2392 22.49C49.6492 22.63 49.3392 22.93 49.3392 23.42C49.3392 23.94 49.6492 24.25 50.2192 24.25C50.6992 24.25 51.1792 23.95 51.4992 23.35ZM58.6795 21.16L57.4595 21.44C57.3395 20.68 56.9995 20.33 56.4895 20.33C55.6795 20.33 55.2595 21.02 55.2595 22.28C55.2595 23.55 55.6795 24.24 56.4895 24.24C57.0795 24.24 57.4195 23.85 57.5395 23.09L58.7095 23.41C58.4395 24.55 57.6395 25.16 56.4595 25.16C54.8995 25.16 53.9695 24.09 53.9695 22.3C53.9695 20.51 54.9295 19.41 56.4595 19.41C57.6395 19.41 58.4395 20.04 58.6795 21.16ZM64.4271 22.55H60.7171C60.7271 23.59 61.1871 24.28 62.0971 24.28C62.6671 24.28 63.0671 23.96 63.2571 23.24L64.3971 23.57C64.0571 24.62 63.3071 25.16 62.0871 25.16C60.4471 25.16 59.4871 24.11 59.4871 22.31C59.4871 20.52 60.4971 19.41 61.9771 19.41C63.3771 19.41 64.4271 20.43 64.4271 22.29V22.55ZM60.7371 21.72H63.1971C63.1371 20.8 62.7471 20.28 61.9971 20.28C61.2371 20.28 60.7971 20.84 60.7371 21.72ZM66.946 17.12V20.32C67.296 19.75 67.866 19.42 68.456 19.42C69.646 19.42 70.536 20.37 70.536 22.25C70.536 24.13 69.546 25.16 68.386 25.16C67.676 25.16 67.166 24.82 66.846 24.17L66.596 25.02H65.696V17.12H66.946ZM66.946 21.34V23.27C67.196 23.85 67.596 24.19 68.056 24.19C68.716 24.19 69.246 23.6 69.246 22.27C69.246 20.97 68.756 20.4 68.126 20.4C67.656 20.4 67.226 20.71 66.946 21.34ZM73.9888 19.41C75.4688 19.41 76.4688 20.49 76.4688 22.27C76.4688 24.05 75.4788 25.16 73.9788 25.16C72.4788 25.16 71.4988 24.08 71.4988 22.3C71.4988 20.52 72.4988 19.41 73.9888 19.41ZM73.9888 20.32C73.1788 20.32 72.7888 21.02 72.7888 22.28C72.7888 23.55 73.1688 24.25 73.9788 24.25C74.7888 24.25 75.1788 23.56 75.1788 22.28C75.1788 21.02 74.7988 20.32 73.9888 20.32ZM79.9165 19.41C81.3965 19.41 82.3965 20.49 82.3965 22.27C82.3965 24.05 81.4065 25.16 79.9065 25.16C78.4065 25.16 77.4265 24.08 77.4265 22.3C77.4265 20.52 78.4265 19.41 79.9165 19.41ZM79.9165 20.32C79.1065 20.32 78.7165 21.02 78.7165 22.28C78.7165 23.55 79.0965 24.25 79.9065 24.25C80.7165 24.25 81.1065 23.56 81.1065 22.28C81.1065 21.02 80.7265 20.32 79.9165 20.32ZM88.3143 19.53L86.4843 21.58L88.4143 25.02H87.0343L85.6743 22.43L84.9243 23.26V25.02H83.6843V17.12H84.9243V21.93L86.9043 19.53H88.3143Z" fill="white"/>
<path d="M27.4463 21.7403L28.0256 17.963H24.4015V15.5117C24.4015 14.4783 24.9077 13.4711 26.531 13.4711H28.1788V10.2552C28.1788 10.2552 26.6833 10 25.2537 10C22.2688 10 20.3179 11.809 20.3179 15.0841V17.963H17V21.7403H20.3179V30.8716C21.058 30.9028 23.7123 30.8716 24.4015 30.8716V21.7403H27.4463Z" fill="white"/>
</svg>
