<svg width="32" height="32" viewBox="0 0 32 32" fill="none" xmlns="http://www.w3.org/2000/svg">
<path d="M31.7176 22.7934C31.1378 21.9494 29.6376 21.4945 27.8538 21.6209C26.1532 21.7417 24.6959 22.2093 23.4672 22.9663C21.9338 23.9114 21.7062 24.7436 22.5851 25.9734C21.1428 26.3798 19.9448 26.085 18.9838 25.14C18.1008 24.2723 17.2738 23.3642 16.2212 22.5887C15.6344 22.1562 15.0125 21.7759 12.5433 20.9719C12.4181 20.8445 12.2872 20.7178 12.1452 20.5928C11.5887 20.1021 11.0094 19.6102 10.5875 19.0706C9.66196 17.8866 10.1857 16.8457 12.055 16.3347C13.1198 16.0438 14.3295 15.9829 15.4507 15.7678C15.9647 15.6693 16.6571 15.5285 16.8654 15.2701C17.6672 14.2766 18.3059 13.2272 19.1202 12.0295C13.9416 11.9552 10.5044 13.2302 8.88219 16.4302C7.73846 14.3406 8.53695 12.4032 11.0019 11.016C13.6029 9.55199 16.7785 9.03671 20.0766 8.70856C20.6564 8.65063 21.5109 8.51536 21.7039 8.25151C23.6372 5.60777 25.458 2.92975 27.3515 0.202912C26.9301 0.118599 26.718 0.0449002 26.5003 0.0367125C20.8312 -0.173769 15.4727 0.503769 10.6394 2.51091C2.09499 6.05905 0.299987 11.9822 6.21068 17.3316C7.53711 18.5317 9.22044 19.5707 10.7992 20.6468C12.519 21.819 12.7675 22.9963 11.4332 24.1704C9.0761 22.9815 7.21753 22.9205 4.69833 24.0042C2.67951 24.8725 1.20965 26.0398 0.405587 27.539C-0.438232 29.1112 0.0570236 30.6137 1.68247 31.408C3.41724 32.2563 5.58553 32.2005 7.74269 31.192C10.8968 29.7172 12.7049 27.6572 13.6375 25.2519C13.8253 24.7675 13.9113 24.2953 13.9057 23.8346L13.9295 23.8777C14.7425 23.7351 15.5708 23.5001 17.3612 24.7988C17.7961 25.1145 18.2877 25.4038 18.7156 25.7271C19.9439 26.6555 21.4876 27.1438 23.3751 27.1186C26.048 27.0834 28.4953 26.6064 30.5394 25.4417C31.9372 24.6453 32.3358 23.6942 31.7176 22.7934Z" fill="#CB0000"/>
</svg>
