<svg width="93" height="40" viewBox="0 0 93 40" fill="none" xmlns="http://www.w3.org/2000/svg">
<rect width="93" height="40" fill="#4EACD5"/>
<path d="M50.172 17.26V25.02H48.832V21.52H45.602V25.02H44.262V17.26H45.602V20.42H48.832V17.26H50.172ZM52.9355 21.23L51.7555 20.91C52.0355 19.92 52.8355 19.4 54.0255 19.4C55.4455 19.4 56.1555 20 56.1555 21.22V23.4C56.1555 24.04 56.1955 24.56 56.2455 25.02H55.0855C55.0455 24.78 55.0255 24.62 54.9955 24.3C54.6055 24.86 53.9655 25.15 53.2655 25.15C52.2555 25.15 51.5755 24.52 51.5755 23.52C51.5755 22.56 52.1755 21.94 53.3655 21.71C53.8355 21.62 54.3755 21.57 54.9355 21.55V21.24C54.9355 20.55 54.6455 20.27 53.9855 20.27C53.4655 20.27 53.0455 20.6 52.9355 21.23ZM54.9355 23.35V22.33C54.4055 22.34 54.0155 22.41 53.6755 22.49C53.0855 22.63 52.7755 22.93 52.7755 23.42C52.7755 23.94 53.0855 24.25 53.6555 24.25C54.1355 24.25 54.6155 23.95 54.9355 23.35ZM59.2358 17.74V19.53H60.4658V20.45H59.2358V23.46C59.2358 24.01 59.4558 24.25 59.9158 24.25C60.1258 24.25 60.3258 24.24 60.5558 24.19L60.5058 25.09C60.1558 25.14 59.8558 25.15 59.5258 25.15C58.4858 25.15 57.9958 24.7 57.9958 23.69V20.45H57.1758V19.53H57.9958V18.02L59.2358 17.74ZM66.1446 22.55H62.4346C62.4446 23.59 62.9046 24.28 63.8146 24.28C64.3846 24.28 64.7846 23.96 64.9746 23.24L66.1146 23.57C65.7746 24.62 65.0246 25.16 63.8046 25.16C62.1646 25.16 61.2046 24.11 61.2046 22.31C61.2046 20.52 62.2146 19.41 63.6946 19.41C65.0946 19.41 66.1446 20.43 66.1446 22.29V22.55ZM62.4546 21.72H64.9146C64.8546 20.8 64.4646 20.28 63.7146 20.28C62.9546 20.28 62.5146 20.84 62.4546 21.72ZM68.6335 19.53V20.49C69.0735 19.84 69.7235 19.41 70.4335 19.41C71.3435 19.41 72.0035 20 72.0035 21.06V25.02H70.7135V21.41C70.7135 20.78 70.4435 20.49 69.9535 20.49C69.5135 20.49 69.0135 20.85 68.6735 21.42V25.02H67.4135V19.53H68.6335ZM74.6152 21.23L73.4352 20.91C73.7152 19.92 74.5152 19.4 75.7052 19.4C77.1252 19.4 77.8352 20 77.8352 21.22V23.4C77.8352 24.04 77.8752 24.56 77.9252 25.02H76.7652C76.7252 24.78 76.7052 24.62 76.6752 24.3C76.2852 24.86 75.6452 25.15 74.9452 25.15C73.9352 25.15 73.2552 24.52 73.2552 23.52C73.2552 22.56 73.8552 21.94 75.0452 21.71C75.5152 21.62 76.0552 21.57 76.6152 21.55V21.24C76.6152 20.55 76.3252 20.27 75.6652 20.27C75.1452 20.27 74.7252 20.6 74.6152 21.23ZM76.6152 23.35V22.33C76.0852 22.34 75.6952 22.41 75.3552 22.49C74.7652 22.63 74.4552 22.93 74.4552 23.42C74.4552 23.94 74.7652 24.25 75.3352 24.25C75.8152 24.25 76.2952 23.95 76.6152 23.35Z" fill="white"/>
<path d="M25.1839 20.5352C24.6232 19.9086 23.8439 19.5566 22.8439 19.4805C23.7333 19.238 24.3793 18.8835 24.7879 18.4096C25.1945 17.942 25.3963 17.3073 25.3963 16.5084C25.3963 15.8761 25.2581 15.3166 24.9902 14.8334C24.7157 14.3531 24.3209 13.9685 23.8024 13.6807C23.3486 13.4312 22.8094 13.2552 22.1808 13.1514C21.5492 13.0508 20.4436 13 18.8572 13H15V27.0674H18.9741C20.5705 27.0674 21.722 27.0115 22.4259 26.9046C23.1292 26.794 23.7194 26.6079 24.1971 26.3528C24.7879 26.041 25.2385 25.5973 25.5534 25.0273C25.8702 24.4553 26.0273 23.7959 26.0273 23.0417C26.0273 21.9985 25.7463 21.16 25.1839 20.5352ZM18.5618 16.1187H19.3852C20.3367 16.1187 20.976 16.2261 21.3059 16.4398C21.6315 16.6549 21.7974 17.0257 21.7974 17.5542C21.7974 18.0627 21.6208 18.4209 21.2713 18.6309C20.9174 18.837 20.272 18.9413 19.3273 18.9413H18.5618V16.1187ZM21.8276 24.1856C21.453 24.4157 20.8075 24.5287 19.9018 24.5287H18.5618V21.4553H19.9597C20.8898 21.4553 21.5327 21.5723 21.8747 21.806C22.2223 22.0399 22.3932 22.4528 22.3932 23.0455C22.3932 23.576 22.2059 23.957 21.8276 24.1856Z" fill="white"/>
<path d="M30.0996 23.5037C29.115 23.5037 28.3174 24.3008 28.3174 25.2853C28.3174 26.2699 29.115 27.0674 30.0996 27.0674C31.0828 27.0674 31.8812 26.2699 31.8812 25.2853C31.8812 24.3008 31.0828 23.5037 30.0996 23.5037Z" fill="white"/>
<rect x="28.5518" y="13" width="3.09483" height="9.37828" fill="white"/>
</svg>
