<svg width="65" height="40" viewBox="0 0 65 40" fill="none" xmlns="http://www.w3.org/2000/svg">
<rect width="65" height="40" fill="#4EACD5"/>
<path d="M34.2434 20.5352C33.6828 19.9086 32.9035 19.5566 31.9035 19.4805C32.7929 19.238 33.4389 18.8835 33.8475 18.4096C34.2541 17.942 34.4559 17.3073 34.4559 16.5084C34.4559 15.8761 34.3176 15.3166 34.0498 14.8334C33.7752 14.3531 33.3805 13.9685 32.862 13.6807C32.4081 13.4312 31.8689 13.2552 31.2404 13.1514C30.6087 13.0508 29.5031 13 27.9168 13H24.0596V27.0674H28.0337C29.6301 27.0674 30.7815 27.0115 31.4855 26.9046C32.1888 26.794 32.779 26.6079 33.2567 26.3528C33.8475 26.041 34.2981 25.5973 34.613 25.0273C34.9298 24.4553 35.0869 23.7959 35.0869 23.0417C35.0869 21.9985 34.8059 21.16 34.2434 20.5352ZM27.6214 16.1187H28.4447C29.3963 16.1187 30.0356 16.2261 30.3655 16.4398C30.6911 16.6549 30.857 17.0257 30.857 17.5542C30.857 18.0627 30.6804 18.4209 30.3309 18.6309C29.977 18.837 29.3316 18.9413 28.3869 18.9413H27.6214V16.1187ZM30.8872 24.1856C30.5126 24.4157 29.8671 24.5287 28.9613 24.5287H27.6214V21.4553H29.0192C29.9494 21.4553 30.5923 21.5723 30.9343 21.806C31.2819 22.0399 31.4528 22.4528 31.4528 23.0455C31.4528 23.576 31.2654 23.957 30.8872 24.1856Z" fill="white"/>
<path d="M39.1589 23.5034C38.1743 23.5034 37.3767 24.3005 37.3767 25.285C37.3767 26.2696 38.1743 27.0671 39.1589 27.0671C40.1422 27.0671 40.9405 26.2696 40.9405 25.285C40.9405 24.3005 40.1422 23.5034 39.1589 23.5034Z" fill="white"/>
<rect x="37.6112" y="13" width="3.09483" height="9.37828" fill="white"/>
</svg>
