<svg width="23" height="19" viewBox="0 0 23 19" fill="none" xmlns="http://www.w3.org/2000/svg">
<path d="M7.0344 18.1783C15.4753 18.1783 20.0913 11.1853 20.0913 5.12144C20.0913 4.92274 20.0873 4.72491 20.0781 4.52818C20.9741 3.8805 21.753 3.07222 22.3675 2.15211C21.5452 2.51733 20.6603 2.76355 19.7321 2.8745C20.6795 2.30654 21.407 1.40755 21.75 0.336052C20.8632 0.861702 19.8814 1.244 18.8361 1.44987C17.9987 0.557938 16.8061 0 15.4865 0C12.9519 0 10.8967 2.05521 10.8967 4.58874C10.8967 4.94894 10.9371 5.29905 11.0157 5.63509C7.20189 5.44337 3.81993 3.61719 1.55679 0.840485C1.16231 1.51849 0.935326 2.30654 0.935326 3.14694C0.935326 4.73914 1.74547 6.14454 2.97739 6.96687C2.22477 6.94369 1.51751 6.73684 0.898994 6.39272C0.89801 6.41187 0.89801 6.43111 0.89801 6.45125C0.89801 8.67393 2.48002 10.5295 4.57961 10.9502C4.19418 11.0551 3.7886 11.1116 3.36989 11.1116C3.07428 11.1116 2.78673 11.0824 2.50722 11.0289C3.09145 12.8521 4.78548 14.1789 6.79427 14.2162C5.22335 15.4471 3.24481 16.1806 1.09467 16.1806C0.724442 16.1806 0.359222 16.1594 0 16.117C2.03098 17.4185 4.44246 18.1783 7.0344 18.1783Z" fill="white"/>
</svg>
