<svg width="20" height="20" viewBox="0 0 20 20" fill="none" xmlns="http://www.w3.org/2000/svg">
<path d="M5.78991 19.8026C2.597 19.8026 0 17.2056 0 14.0126V5.78991C0 2.59756 2.597 0 5.78991 0H14.0126C17.2056 0 19.8026 2.59756 19.8026 5.78991V14.0126C19.8026 17.2056 17.2056 19.8026 14.0126 19.8026H5.78991ZM1.84576 5.78991V14.0126C1.84576 16.1873 3.61524 17.9568 5.78991 17.9568H14.0126C16.1873 17.9568 17.9562 16.1873 17.9562 14.0126V5.78991C17.9562 3.61524 16.1873 1.84576 14.0126 1.84576H5.78991C3.61524 1.84576 1.84576 3.61524 1.84576 5.78991ZM4.78273 9.90156C4.78273 7.07902 7.07902 4.78273 9.901 4.78273C12.7235 4.78273 15.0198 7.07902 15.0198 9.90156C15.0198 12.7235 12.7235 15.0198 9.901 15.0198C7.07902 15.0198 4.78273 12.7235 4.78273 9.90156ZM6.62905 9.90156C6.62905 11.7059 8.0967 13.1735 9.901 13.1735C11.7059 13.1735 13.1735 11.7059 13.1735 9.90156C13.1735 8.0967 11.7059 6.62849 9.901 6.62849C8.0967 6.62849 6.62905 8.0967 6.62905 9.90156ZM13.9585 4.62021C13.9585 3.93862 14.5107 3.38639 15.1923 3.38639C15.8739 3.38639 16.4261 3.93862 16.4261 4.62021C16.4261 5.3018 15.8739 5.85404 15.1923 5.85404C14.5107 5.85404 13.9585 5.3018 13.9585 4.62021Z" fill="white"/>
</svg>
