<svg width="23" height="23" viewBox="0 0 23 23" fill="none" xmlns="http://www.w3.org/2000/svg">
<path d="M9.47664 22.3276C6.86175 21.9165 4.46324 20.5804 2.72471 18.5657C0.967653 16.5296 0 13.925 0 11.2318C0 8.23178 1.16834 5.41126 3.28979 3.28979C5.41126 1.16834 8.23178 0 11.2318 0C14.2318 0 17.0523 1.16834 19.1738 3.28979C21.2952 5.41126 22.4636 8.23178 22.4636 11.2318C22.4636 13.925 21.4959 16.5296 19.7389 18.5657C18.0002 20.5806 15.6027 21.9162 12.9879 22.3265L12.9869 14.4787H15.6037L16.1014 11.2318H12.9869V9.12471L12.987 9.1039C12.992 8.45673 13.2364 7.37105 14.8172 7.37105H16.2331V4.607C16.2239 4.6056 14.9367 4.38751 13.7191 4.38751C11.0626 4.38751 9.47664 6.02102 9.47664 8.75716V11.2318H6.62479V14.4787H9.47664V22.3276Z" fill="white"/>
</svg>
