<svg width="23" height="16" viewBox="0 0 23 16" fill="none" xmlns="http://www.w3.org/2000/svg">
<path d="M11.1693 15.6364C11.0994 15.6364 4.16373 15.6311 2.44189 15.1699C1.4803 14.9131 0.723382 14.1565 0.466503 13.1953C0.00533217 11.4727 0 7.85456 0 7.81821C0 7.78186 0.00533217 4.16373 0.466503 2.44189C0.723084 1.48102 1.48 0.724101 2.44189 0.466503C4.16373 0.00533217 11.0994 0 11.1693 0C11.2391 0 18.1741 0.00533217 19.896 0.466503C20.8578 0.724101 21.6148 1.48102 21.8713 2.44189C22.3325 4.16373 22.3378 7.78186 22.3378 7.81821C22.3378 7.85456 22.3325 11.4727 21.8713 13.1953C21.6145 14.1565 20.8575 14.9131 19.896 15.1699C18.1741 15.6311 11.2391 15.6364 11.1693 15.6364ZM8.93499 4.46787V11.1693L14.7384 7.81821L8.93499 4.46787Z" fill="white"/>
</svg>
