<svg width="35" height="35" viewBox="0 0 35 35" fill="none" xmlns="http://www.w3.org/2000/svg">
<circle cx="17.5" cy="17.5" r="17.5" fill="black"/>
<path d="M23.3435 26.62L23.0635 28.58C22.3835 28.68 21.7035 28.72 20.9435 28.72C18.6435 28.72 17.7835 28.14 17.1435 26.4L16.7035 25.22C13.1035 24.96 10.7035 22.1 10.7035 17.28C10.7035 12.16 13.4035 9.24 17.3635 9.24C21.3435 9.24 24.0035 12.12 24.0035 17.24C24.0035 21.54 22.1035 24.32 19.1835 25.02L19.4435 25.78C19.7435 26.54 20.2035 26.84 21.3835 26.84C22.0435 26.84 22.6635 26.76 23.3435 26.62ZM17.3635 11.34C15.0835 11.34 13.5635 13.28 13.5635 17.26C13.5635 21.2 15.0835 23.22 17.3635 23.22C19.6435 23.22 21.1435 21.2 21.1435 17.26C21.1435 13.28 19.6435 11.34 17.3635 11.34Z" fill="white"/>
</svg>
