<svg width="81" height="40" viewBox="0 0 81 40" fill="none" xmlns="http://www.w3.org/2000/svg">
<rect width="81" height="40" fill="#52B534"/>
<path d="M45.1391 17.26V23.93H48.7791V25.02H43.7791V17.26H45.1391ZM51.3794 17.26V25.02H50.0194V17.26H51.3794ZM59.192 17.26V25.02H57.542L55.662 21.02C55.212 20.05 54.902 19.33 54.552 18.46H54.412C54.462 19.38 54.482 20.3 54.482 21.26V25.02H53.242V17.26H55.272L56.882 20.7C57.322 21.67 57.622 22.46 57.912 23.36H58.052C57.992 22.41 57.952 21.56 57.952 20.52V17.26H59.192ZM66.1745 17.26V18.33H62.4045V20.38H65.2545V21.45H62.4045V23.95H66.2545V25.02H61.0545V17.26H66.1745Z" fill="white"/>
<path d="M34.3148 18.2429C34.3148 13.6979 29.7584 10 24.1574 10C18.5571 10 14 13.6979 14 18.2429C14 22.3177 17.6137 25.73 22.4947 26.3754C22.8255 26.4465 23.2758 26.5935 23.3898 26.8762C23.492 27.1328 23.4567 27.5352 23.4225 27.7947C23.4225 27.7947 23.3033 28.5112 23.2775 28.6642C23.2333 28.9209 23.0733 29.6685 24.1574 29.2117C25.2415 28.7549 30.0069 25.7672 32.1381 23.3145C33.6102 21.7002 34.3148 20.0619 34.3148 18.2429Z" fill="white"/>
<path d="M22.0935 16.0467H21.3809C21.2717 16.0467 21.1831 16.135 21.1831 16.2441V20.6701C21.1831 20.7791 21.2717 20.8674 21.3809 20.8674H22.0935C22.2025 20.8674 22.2914 20.7791 22.2914 20.6701V16.2441C22.2914 16.135 22.2025 16.0467 22.0935 16.0467Z" fill="#00B900"/>
<path d="M26.9975 16.0467H26.2849C26.1756 16.0467 26.0871 16.135 26.0871 16.2441V18.8734L24.0589 16.1346C24.0543 16.1274 24.0489 16.1208 24.0435 16.1143L24.0422 16.1132C24.0384 16.1088 24.0342 16.1048 24.0303 16.1009L24.0266 16.0976C24.0233 16.0946 24.0198 16.0916 24.0161 16.0888L24.011 16.0848C24.0075 16.0822 24.0043 16.0799 24.0008 16.0776L23.9947 16.0741C23.9912 16.072 23.9878 16.0699 23.9843 16.0683L23.978 16.0653C23.9743 16.0637 23.9706 16.0618 23.9666 16.0604L23.9601 16.0581C23.9564 16.0567 23.9524 16.0555 23.9485 16.0544L23.9415 16.0525C23.9378 16.0516 23.9341 16.0509 23.9301 16.05L23.9217 16.0488C23.9185 16.0483 23.915 16.0479 23.9113 16.0476C23.908 16.0471 23.9045 16.0471 23.901 16.0469L23.8943 16.0467H23.1817C23.0727 16.0467 22.9839 16.135 22.9839 16.2441V20.6701C22.9839 20.7791 23.0727 20.8674 23.1817 20.8674H23.8943C24.0036 20.8674 24.0922 20.7791 24.0922 20.6701V18.0414L26.1229 20.784C26.1368 20.8037 26.1543 20.8198 26.1731 20.8328L26.1752 20.8342C26.1791 20.837 26.1831 20.8396 26.1873 20.8416L26.1931 20.8447C26.1961 20.8463 26.1991 20.8479 26.2024 20.8493C26.2057 20.8507 26.2087 20.8521 26.2122 20.8535L26.218 20.8556C26.2226 20.8572 26.227 20.8586 26.2314 20.86L26.2343 20.8607C26.2503 20.8649 26.2675 20.8674 26.2849 20.8674H26.9975C27.1068 20.8674 27.1953 20.7791 27.1953 20.6701V16.2441C27.1953 16.135 27.1068 16.0467 26.9975 16.0467Z" fill="#00B900"/>
<path d="M20.3759 19.7592H18.44V16.2443C18.44 16.135 18.3517 16.0464 18.2424 16.0464H17.5299C17.4206 16.0464 17.332 16.135 17.332 16.2443V20.6696C17.332 20.7229 17.3532 20.771 17.3874 20.8065L17.3901 20.8096L17.3929 20.8123C17.4285 20.8465 17.4764 20.8675 17.5296 20.8675H20.3759C20.4852 20.8675 20.5735 20.7789 20.5735 20.6696V19.957C20.5735 19.8478 20.4852 19.7592 20.3759 19.7592Z" fill="#00B900"/>
<path d="M30.9318 17.1549C31.0408 17.1549 31.1292 17.0663 31.1292 16.9571V16.2445C31.1292 16.1353 31.0408 16.0467 30.9318 16.0467H28.0855C28.0321 16.0467 27.9837 16.0678 27.9479 16.1025L27.9458 16.1046L27.9425 16.1081C27.9086 16.1434 27.8877 16.1913 27.8877 16.2443V20.6696C27.8877 20.7228 27.9088 20.7712 27.943 20.8065L27.9458 20.8096L27.9486 20.8121C27.9842 20.8463 28.032 20.8674 28.0853 20.8674H30.9318C31.0408 20.8674 31.1292 20.7789 31.1292 20.6696V19.9571C31.1292 19.8478 31.0408 19.7592 30.9318 19.7592H28.9959V19.0111H30.9318C31.0408 19.0111 31.1292 18.9225 31.1292 18.8132V18.1009C31.1292 17.9914 31.0408 17.9028 30.9318 17.9028H28.9959V17.1549H30.9318Z" fill="#00B900"/>
</svg>
