<svg width="65" height="40" viewBox="0 0 65 40" fill="none" xmlns="http://www.w3.org/2000/svg">
<rect width="65" height="40" fill="#52B534"/>
<path d="M42.3148 18.2429C42.3148 13.6979 37.7584 10 32.1574 10C26.5571 10 22 13.6979 22 18.2429C22 22.3177 25.6137 25.73 30.4947 26.3754C30.8255 26.4465 31.2758 26.5935 31.3898 26.8762C31.492 27.1328 31.4567 27.5352 31.4225 27.7947C31.4225 27.7947 31.3033 28.5112 31.2775 28.6642C31.2333 28.9209 31.0733 29.6685 32.1574 29.2117C33.2415 28.7549 38.0069 25.7672 40.1381 23.3145C41.6102 21.7002 42.3148 20.0619 42.3148 18.2429Z" fill="white"/>
<path d="M30.0936 16.0464H29.381C29.2718 16.0464 29.1832 16.1347 29.1832 16.2438V20.6698C29.1832 20.7788 29.2718 20.8671 29.381 20.8671H30.0936C30.2027 20.8671 30.2915 20.7788 30.2915 20.6698V16.2438C30.2915 16.1347 30.2027 16.0464 30.0936 16.0464Z" fill="#00B900"/>
<path d="M34.9976 16.0464H34.285C34.1758 16.0464 34.0872 16.1347 34.0872 16.2438V18.8731L32.059 16.1343C32.0544 16.1271 32.049 16.1205 32.0437 16.114L32.0423 16.1129C32.0385 16.1085 32.0344 16.1045 32.0304 16.1006L32.0267 16.0973C32.0234 16.0943 32.02 16.0912 32.0162 16.0885L32.0111 16.0845C32.0076 16.0819 32.0044 16.0796 32.0009 16.0773L31.9948 16.0738C31.9914 16.0717 31.9879 16.0696 31.9844 16.068L31.9781 16.065C31.9744 16.0634 31.9707 16.0615 31.9667 16.0601L31.9602 16.0578C31.9565 16.0564 31.9525 16.0552 31.9486 16.054L31.9416 16.0522C31.9379 16.0513 31.9342 16.0506 31.9302 16.0497L31.9218 16.0485C31.9186 16.048 31.9151 16.0475 31.9114 16.0473C31.9081 16.0468 31.9046 16.0468 31.9012 16.0466L31.8944 16.0464H31.1819C31.0728 16.0464 30.984 16.1347 30.984 16.2438V20.6698C30.984 20.7788 31.0728 20.8671 31.1819 20.8671H31.8944C32.0037 20.8671 32.0923 20.7788 32.0923 20.6698V18.0411L34.123 20.7837C34.1369 20.8034 34.1544 20.8195 34.1732 20.8325L34.1753 20.8339C34.1793 20.8367 34.1832 20.8393 34.1874 20.8413L34.1932 20.8444C34.1962 20.846 34.1992 20.8476 34.2025 20.849C34.2058 20.8504 34.2088 20.8518 34.2123 20.8532L34.2181 20.8553C34.2227 20.8569 34.2271 20.8583 34.2316 20.8597L34.2344 20.8604C34.2504 20.8646 34.2676 20.8671 34.285 20.8671H34.9976C35.1069 20.8671 35.1955 20.7788 35.1955 20.6698V16.2438C35.1955 16.1347 35.1069 16.0464 34.9976 16.0464Z" fill="#00B900"/>
<path d="M28.376 19.7591H26.4402V16.2442C26.4402 16.135 26.3518 16.0464 26.2425 16.0464H25.53C25.4207 16.0464 25.3322 16.135 25.3322 16.2442V20.6696C25.3322 20.7228 25.3533 20.7709 25.3875 20.8065L25.3903 20.8095L25.393 20.8123C25.4286 20.8465 25.4765 20.8674 25.5298 20.8674H28.376C28.4853 20.8674 28.5736 20.7788 28.5736 20.6696V19.957C28.5736 19.8477 28.4853 19.7591 28.376 19.7591Z" fill="#00B900"/>
<path d="M38.9322 17.1546C39.0412 17.1546 39.1295 17.066 39.1295 16.9568V16.2442C39.1295 16.135 39.0412 16.0464 38.9322 16.0464H36.0859C36.0324 16.0464 35.9841 16.0675 35.9483 16.1022L35.9462 16.1043L35.9429 16.1078C35.909 16.1431 35.8881 16.191 35.8881 16.244V20.6693C35.8881 20.7225 35.9092 20.7709 35.9434 20.8062L35.9462 20.8093L35.9489 20.8118C35.9845 20.846 36.0324 20.8671 36.0857 20.8671H38.9322C39.0412 20.8671 39.1295 20.7786 39.1295 20.6693V19.9568C39.1295 19.8475 39.0412 19.7589 38.9322 19.7589H36.9963V19.0108H38.9322C39.0412 19.0108 39.1295 18.9222 39.1295 18.8129V18.1006C39.1295 17.9911 39.0412 17.9025 38.9322 17.9025H36.9963V17.1546H38.9322Z" fill="#00B900"/>
</svg>
